<?xml version="1.0" encoding="utf-8"?>
<!-- Generator: Adobe Illustrator 17.0.0, SVG Export Plug-In . SVG Version: 6.00 Build 0)  -->
<!DOCTYPE svg PUBLIC "-//W3C//DTD SVG 1.1//EN" "http://www.w3.org/Graphics/SVG/1.1/DTD/svg11.dtd">
<svg version="1.1" id="图层_1" xmlns="http://www.w3.org/2000/svg" xmlns:xlink="http://www.w3.org/1999/xlink" x="0px" y="0px"
	 width="100px" height="100px" viewBox="0 0 100 100" enable-background="new 0 0 100 100" xml:space="preserve">
<path fill="#FFFFFF" d="M74.5,6c7.4,0,13.4,6,13.4,13.4v40.9H12.1v-1.1V19.4C12.1,12,18.1,6,25.5,6H74.5 M74.5,1h-49
	C15.3,1,7.1,9.2,7.1,19.4v39.8v6.1h85.8V19.4C92.9,9.2,84.7,1,74.5,1L74.5,1z"/>
<polygon fill="#FFFFFF" points="1,77.6 43.9,77.6 43.9,99 56.1,99 56.1,77.6 99,77.6 99,71.4 1,71.4 1,77.6 "/>
<polygon fill="#FFFFFF" points="43.9,40.8 53.1,40.8 62.3,25.5 53.1,25.5 43.9,40.8 "/>
<polygon fill="#FFFFFF" points="34.7,25.5 25.5,40.8 34.7,40.8 43.9,25.5 34.7,25.5 "/>
</svg>
