<?xml version="1.0" encoding="utf-8"?>
<!-- Generator: Adobe Illustrator 19.0.0, SVG Export Plug-In . SVG Version: 6.00 Build 0)  -->
<svg version="1.1" id="图层_1" xmlns="http://www.w3.org/2000/svg" xmlns:xlink="http://www.w3.org/1999/xlink" x="0px" y="0px"
	 viewBox="0 0 24 24" style="enable-background:new 0 0 24 24;" xml:space="preserve">
<style type="text/css">
	.st0{fill:#FFFFFF;}
	.st1{fill:#58595B;}
</style>
<g id="XMLID_28_">
	<circle id="XMLID_33_" class="st0" cx="12" cy="12" r="12"/>
	<g id="XMLID_27_">
		<path id="XMLID_37_" class="st1" d="M11.9999,1.0001C5.9282,1.0001,1,5.9289,1,12.0004c0,6.0715,4.9282,10.9995,10.9999,10.9995
			C18.0708,22.9999,23,18.0719,23,12.0004C23,5.9289,18.0708,1.0001,11.9999,1.0001z M11.9999,21.9999
			C6.4859,21.9999,2,17.5141,2,12.0004C2,6.4862,6.4859,2.0001,11.9999,2.0001C17.514,2.0001,22,6.4862,22,12.0004
			C22,17.5141,17.514,21.9999,11.9999,21.9999z"/>
		<path id="XMLID_40_" class="st1" d="M14.9462,8.339c0.9337-1.3441,0.6536-2.8264,0.3409-3.4904l-0.6112-1.2979l-1.0037,1.0199
			c-0.1902,0.1883-0.8163,0.6854-1.4455,0.7459c-1.5936,0.1532-3.917,1.0876-3.7858,3.0342L8.46,8.6331l0.1641,0.2305l2.5576,3.5918
			c-0.6293,0.1443-1.3347,0.4523-1.9957,1.0643c-1.0072,0.9326-1.4861,2.111-1.3141,3.2329
			c0.1685,1.0988,0.9282,2.0201,2.139,2.5941c0.53,0.2513,1.1082,0.3787,1.7186,0.3787c1.2028,0,2.4277-0.5165,3.2765-1.3817
			c0.7655-0.7803,1.1761-1.7863,1.1561-2.8329c-0.0197-1.0298-1.6566-3.744-3.0539-5.8783
			C13.762,9.4272,14.4561,9.0447,14.9462,8.339z M15.1622,15.5298c0.0353,1.8514-1.7153,3.1956-3.4327,3.1956
			c-0.4426,0-0.8832-0.0894-1.2902-0.2823c-1.9863-0.9417-2.0635-2.8103-0.5739-4.1896c0.7994-0.7401,1.6811-0.9116,2.3268-0.9115
			c0.5578,0,0.9396,0.128,0.9396,0.128L9.4387,8.2834c-0.0809-1.1991,1.7362-1.8612,2.8838-1.9715
			c1.1477-0.1104,2.0599-1.0373,2.0599-1.0373s0.5959,1.2653-0.2574,2.4939c-0.6953,1.0009-2.074,1.0936-2.5611,1.0936
			c-0.1108,0-0.1755-0.0048-0.1755-0.0048S15.1401,14.3749,15.1622,15.5298z"/>
	</g>
</g>
</svg>
