<?xml version="1.0" encoding="utf-8"?>
<!-- Generator: Adobe Illustrator 19.0.0, SVG Export Plug-In . SVG Version: 6.00 Build 0)  -->
<svg version="1.1" id="图层_1" xmlns="http://www.w3.org/2000/svg" xmlns:xlink="http://www.w3.org/1999/xlink" x="0px" y="0px"
	 viewBox="0 0 24 24" style="enable-background:new 0 0 24 24;" xml:space="preserve">
<style type="text/css">
	.st0{fill:#FFFFFF;}
	.st1{fill:#58595B;}
</style>
<g id="XMLID_34_">
	<circle id="XMLID_33_" class="st0" cx="12" cy="12" r="12"/>
	<g id="XMLID_95_">
		<g id="XMLID_96_">
			<path id="XMLID_3_" class="st1" d="M11.9999,2.0001C17.514,2.0001,22,6.4862,22,12.0004c0,5.5137-4.486,9.9995-10.0001,9.9995
				C6.4859,21.9999,2,17.5141,2,12.0004C2,6.4862,6.4859,2.0001,11.9999,2.0001 M11.9999,1.0001C5.9282,1.0001,1,5.9289,1,12.0004
				c0,6.0715,4.9282,10.9995,10.9999,10.9995C18.0708,22.9999,23,18.0719,23,12.0004C23,5.9289,18.0708,1.0001,11.9999,1.0001
				L11.9999,1.0001z"/>
		</g>
		<path id="XMLID_2_" class="st1" d="M16.1052,7.5199c0.6205,0,1.1448,0.6785,1.1448,1.4817v3.9293
			c0,0.8032-0.5242,1.4817-1.1448,1.4817H12.693h-0.4134l-0.2927,0.2919L9.8096,16.876v-1.4633v-1h-1H8.0459
			c-0.6205,0-1.1448-0.6786-1.1448-1.4817V9.0016c0-0.8032,0.5242-1.4817,1.1448-1.4817H16.1052 M16.1052,6.5199H8.0459
			c-1.1796,0-2.1448,1.1168-2.1448,2.4817v3.9293c0,1.3649,0.9652,2.4817,2.1448,2.4817h0.7637v3.1471
			c0,0.1854,0.1468,0.3089,0.3003,0.3089c0.0717,0,0.1447-0.0269,0.205-0.087l3.3781-3.369h3.4122
			c1.1796,0,2.1448-1.1168,2.1448-2.4817V9.0016C18.25,7.6367,17.2848,6.5199,16.1052,6.5199L16.1052,6.5199z"/>
	</g>
</g>
</svg>
