<?xml version="1.0" encoding="utf-8"?>
<!-- Generator: Adobe Illustrator 19.0.0, SVG Export Plug-In . SVG Version: 6.00 Build 0)  -->
<svg version="1.1" id="图层_1" xmlns="http://www.w3.org/2000/svg" xmlns:xlink="http://www.w3.org/1999/xlink" x="0px" y="0px"
	 viewBox="0 0 24 24" style="enable-background:new 0 0 24 24;" xml:space="preserve">
<style type="text/css">
	.st0{fill:#FFFFFF;}
	.st1{fill:#58595B;}
</style>
<g id="XMLID_29_">
	<circle id="XMLID_33_" class="st0" cx="12" cy="12" r="12"/>
	<g id="XMLID_27_">
		<g id="XMLID_92_">
			<path id="XMLID_28_" class="st1" d="M11.9999,2.0001C17.514,2.0001,22,6.4862,22,12.0004c0,5.5137-4.486,9.9995-10.0001,9.9995
				C6.4859,21.9999,2,17.5141,2,12.0004C2,6.4862,6.4859,2.0001,11.9999,2.0001 M11.9999,1.0001C5.9282,1.0001,1,5.9289,1,12.0004
				c0,6.0715,4.9282,10.9995,10.9999,10.9995c6.071,0,11.0001-4.928,11.0001-10.9995C23,5.9289,18.0708,1.0001,11.9999,1.0001
				L11.9999,1.0001z"/>
		</g>
		<path id="XMLID_154_" class="st1" d="M11.9999,14.0644c1.2461,0,2.2446-1.0061,2.2446-2.2519l0.0076-4.5044
			c0-1.2463-1.0061-2.2524-2.2522-2.2524c-1.246,0-2.2519,1.0061-2.2519,2.2524v4.5044
			C9.748,13.0583,10.7538,14.0644,11.9999,14.0644z M11.0992,7.233c0-0.4952,0.4053-0.9004,0.9007-0.9004
			c0.4954,0,0.9007,0.4053,0.9007,0.9004l-0.0074,4.6542c0,0.4957-0.3979,0.901-0.8934,0.901c-0.4954,0-0.9007-0.4053-0.9007-0.901
			V7.233z M15.9785,11.8126c0,2.2519-1.9068,3.8278-3.9787,3.8278c-2.0716,0-3.9784-1.5759-3.9784-3.8278h-1.276
			c0,2.5594,2.0417,4.6762,4.5038,5.0441v2.4622h1.5016v-2.4622c2.4622-0.3606,4.5038-2.4774,4.5038-5.0441H15.9785z"/>
	</g>
</g>
</svg>
