<?xml version="1.0" encoding="utf-8"?>
<!-- Generator: Adobe Illustrator 19.0.0, SVG Export Plug-In . SVG Version: 6.00 Build 0)  -->
<svg version="1.1" id="图层_1" xmlns="http://www.w3.org/2000/svg" xmlns:xlink="http://www.w3.org/1999/xlink" x="0px" y="0px"
	 viewBox="0 0 22 22" style="enable-background:new 0 0 22 22;" xml:space="preserve">
<style type="text/css">
	.st0{fill:#231F20;}
	.st1{fill:#FFFFFF;}
</style>
<g id="XMLID_775_">
	<g id="XMLID_325_">
		<path id="XMLID_14_" class="st0" d="M10.9999,1c5.5141,0,10.0002,4.4862,10.0002,10.0004C21.0001,16.5142,16.514,21,10.9999,21
			c-1.4732,0-2.8919-0.3132-4.2168-0.9308c-0.316-0.1473-0.7117-0.216-1.2454-0.216c-0.5106,0-1.1102,0.0625-1.6901,0.1229
			c-0.557,0.0581-1.133,0.1181-1.5871,0.1181c-0.2973,0-0.4505-0.0264-0.5177-0.043c-0.141-0.2608,0.0668-1.3316,0.1584-1.8035
			c0.2073-1.0685,0.4216-2.1733-0.0002-3.0951c-0.598-1.3067-0.9011-2.7037-0.9011-4.1522C0.9999,5.4862,5.4859,1,10.9999,1
			 M10.9999,0c-6.0717,0-11,4.9288-11,11.0004c0,1.6295,0.355,3.1767,0.9918,4.5683c0.6366,1.3912-1.0143,4.2574,0.1125,5.2646
			c0.2195,0.1962,0.6406,0.2609,1.1563,0.2609c0.9958,0,2.3446-0.241,3.2772-0.241c0.3437,0,0.6308,0.0328,0.8229,0.1223
			C7.7705,21.6329,9.3426,22,10.9999,22c6.071,0,11.0002-4.928,11.0002-10.9996S17.0709,0,10.9999,0L10.9999,0z"/>
	</g>
	<g id="XMLID_804_">
		<path id="XMLID_1022_" class="st1" d="M12.6282,13.1478c0,0-1.9684-0.6601-3.619,0.8681
			c-1.6505,1.5283-1.5649,3.5986,0.6358,4.6419c2.2007,1.0433,5.2821-0.6479,5.2328-3.2277
			c-0.0244-1.2796-4.1813-7.3928-4.1813-7.3928s2.0866,0.1549,3.0321-1.2063c0.9454-1.3612,0.2852-2.7631,0.2852-2.7631
			s-1.0106,1.027-2.2822,1.1493C10.4601,5.3394,8.4469,6.073,8.5365,7.4015L12.6282,13.1478z"/>
		<path id="XMLID_155_" class="st0" d="M14.0138,4.0679c0,0,0.6603,1.4019-0.2852,2.7631
			c-0.7703,1.1089-2.2979,1.2116-2.8376,1.2116c-0.1228,0-0.1945-0.0053-0.1945-0.0053s4.1569,6.1132,4.1813,7.3928
			c0.0392,2.0512-1.9005,3.5405-3.8033,3.5405c-0.4903,0-0.9786-0.099-1.4295-0.3128c-2.2007-1.0433-2.2863-3.1136-0.6358-4.6419
			c0.8857-0.82,1.8626-1.0099,2.5781-1.0099c0.6179,0,1.0409,0.1418,1.0409,0.1418L8.5365,7.4015
			c-0.0896-1.3285,1.9236-2.0621,3.1951-2.1843C13.0032,5.0949,14.0138,4.0679,14.0138,4.0679 M14.3073,2.344l-1.0039,1.0201
			c-0.2175,0.216-0.9371,0.7874-1.6675,0.8577c-1.7238,0.1657-4.2374,1.1671-4.0971,3.247l0.019,0.2823l0.1641,0.2305l2.9292,4.1137
			c-0.7205,0.1396-1.5488,0.4717-2.3212,1.1868c-1.0892,1.0085-1.6077,2.2792-1.4227,3.4863
			c0.1811,1.1809,1.0013,2.1729,2.3095,2.793c0.5727,0.2715,1.1978,0.4092,1.8578,0.4092c1.3043,0,2.6326-0.5602,3.5532-1.4985
			c0.8276-0.8436,1.2715-1.9308,1.25-3.0611c-0.0217-1.1367-1.8876-4.2067-3.4453-6.5769c0.745-0.2103,1.5566-0.6252,2.1175-1.4326
			c1.0063-1.4488,0.7052-3.045,0.3686-3.7597L14.3073,2.344L14.3073,2.344z"/>
	</g>
</g>
</svg>
