<?xml version="1.0" encoding="utf-8"?>
<!-- Generator: Adobe Illustrator 17.0.0, SVG Export Plug-In . SVG Version: 6.00 Build 0)  -->
<!DOCTYPE svg PUBLIC "-//W3C//DTD SVG 1.1//EN" "http://www.w3.org/Graphics/SVG/1.1/DTD/svg11.dtd">
<svg version="1.1" id="图层_1" xmlns="http://www.w3.org/2000/svg" xmlns:xlink="http://www.w3.org/1999/xlink" x="0px" y="0px"
	 width="40px" height="40px" viewBox="0 0 40 40" enable-background="new 0 0 40 40" xml:space="preserve">
<path fill="#FFFFFF" d="M30.5,15.4h-1.9c0,0,1.2-3.4,1.2-5.4c0-9.6-8-8.5-8-8.5s-3.7,0-3.7,3.6c0,6.1-4,9.9-5.5,11.1
	c-0.5-0.5-1-0.8-1.8-0.8H3.5c-1.3,0-2.5,1-2.5,2.5v18.2c0,1.3,1.1,2.5,2.5,2.5h7.3c0.7,0,1.1-0.2,1.6-0.6c2.3,0,8.2,0,14.9,0
	C36,38.2,39,35.3,39,24.8C39,14,30.5,15.4,30.5,15.4z M10.8,19.2v15.8c0,0.7-0.6,1.2-1.2,1.2H4.7c-0.7,0-1.2-0.6-1.2-1.2V19.2
	c0-0.7,0.6-1.2,1.2-1.2h4.8C10.2,17.9,10.8,18.5,10.8,19.2L10.8,19.2z"/>
</svg>
