<?xml version="1.0" encoding="utf-8"?>
<!-- Generator: Adobe Illustrator 17.0.0, SVG Export Plug-In . SVG Version: 6.00 Build 0)  -->
<!DOCTYPE svg PUBLIC "-//W3C//DTD SVG 1.1//EN" "http://www.w3.org/Graphics/SVG/1.1/DTD/svg11.dtd">
<svg version="1.1" id="图层_1" xmlns="http://www.w3.org/2000/svg" xmlns:xlink="http://www.w3.org/1999/xlink" x="0px" y="0px"
	 width="100px" height="100px" viewBox="0 0 100 100" enable-background="new 0 0 100 100" xml:space="preserve">
<g>
	<path fill="#FFFFFF" d="M50,6c24.3,0,44,19.7,44,44S74.3,94,50,94S6,74.3,6,50S25.7,6,50,6 M50,1C22.9,1,1,22.9,1,50s21.9,49,49,49
		s49-21.9,49-49S77.1,1,50,1L50,1z"/>
</g>
<g>
	<path fill="#FFFFFF" d="M62.2,50.8c-0.5,0-1-0.5-1-1V22.3c0-0.6-0.4-1-1-1H41.8c-0.6,0-1,0.5-1,1v27.5c0,0.5-0.5,1-1,1h-8.2
		c-0.5,0-0.7,0.3-0.2,0.6l19.9,16.9c0.4,0.4,1.1,0.3,1.5,0l18-16.8c0.4-0.4,0.3-0.7-0.3-0.7H62.2z"/>
</g>
<g>
	<path fill="#FFFFFF" d="M63.4,64.6"/>
</g>
<g>
	<path fill="#FFFFFF" d="M75,77.2H27c-1.9,0-3.5-1.6-3.5-3.5V56.5h5v15.7h45V56.5h5v17.2C78.5,75.6,76.9,77.2,75,77.2z"/>
</g>
</svg>
