<?xml version="1.0" encoding="utf-8"?>
<!-- Generator: Adobe Illustrator 16.0.0, SVG Export Plug-In . SVG Version: 6.00 Build 0)  -->
<!DOCTYPE svg PUBLIC "-//W3C//DTD SVG 1.1//EN" "http://www.w3.org/Graphics/SVG/1.1/DTD/svg11.dtd">
<svg version="1.1" id="图层_1" xmlns="http://www.w3.org/2000/svg" xmlns:xlink="http://www.w3.org/1999/xlink" x="0px" y="0px"
	 width="40px" height="40px" viewBox="0 0 40 40" enable-background="new 0 0 40 40" xml:space="preserve">
<path fill="#FFFFFF" stroke="#FFFFFF" stroke-width="2" stroke-miterlimit="10" d="M37.524,18.125
	c0.248-7.617-4.166-13.942-9.864-14.129c-2.816-0.092-5.416,1.336-7.358,3.721c-1.743-2.17-4.064-3.536-6.656-3.621
	C8.076,3.913,3.353,9.673,2.913,17.048l-0.018-0.001c-0.003,0.076,0.003,0.149,0.002,0.224c-0.005,0.093-0.017,0.184-0.02,0.276
	c-0.059,1.781,0.147,3.486,0.556,5.066c1.857,8.113,9.349,14.976,17.163,14.325c8.78-0.731,14.788-6.329,16.492-15.443
	C37.327,20.417,37.484,19.292,37.524,18.125z"/>
</svg>
