<?xml version="1.0" encoding="utf-8"?>
<!-- Generator: Adobe Illustrator 19.0.0, SVG Export Plug-In . SVG Version: 6.00 Build 0)  -->
<svg version="1.1" id="图层_1" xmlns="http://www.w3.org/2000/svg" xmlns:xlink="http://www.w3.org/1999/xlink" x="0px" y="0px"
	 viewBox="0 0 22 22" style="enable-background:new 0 0 22 22;" xml:space="preserve">
<style type="text/css">
	.st0{fill:#231F20;}
	.st1{fill:#FFFFFF;}
</style>
<g id="XMLID_978_">
	<path id="XMLID_792_" class="st0" d="M6.7453,1c1.4008,0,2.5405,1.1382,2.5405,2.5373S8.1461,6.0746,6.7453,6.0746
		S4.2048,4.9364,4.2048,3.5373S5.3444,1,6.7453,1 M6.7453,0C4.7899,0,3.2048,1.5837,3.2048,3.5373s1.5851,3.5373,3.5405,3.5373
		s3.5404-1.5837,3.5404-3.5373S8.7007,0,6.7453,0L6.7453,0z"/>
	<path id="XMLID_791_" class="st0" d="M14.6401,1c1.4009,0,2.5405,1.1382,2.5405,2.5373s-1.1396,2.5373-2.5405,2.5373
		c-1.4008,0-2.5404-1.1382-2.5404-2.5373S13.2393,1,14.6401,1 M14.6401,0c-1.9553,0-3.5404,1.5837-3.5404,3.5373
		s1.5851,3.5373,3.5404,3.5373c1.9554,0,3.5405-1.5837,3.5405-3.5373S16.5955,0,14.6401,0L14.6401,0z"/>
	<g id="XMLID_26_">
		<path id="XMLID_786_" class="st1" d="M21.9116,10.9557c-0.1225-2.1433-1.9194-3.7877-4.017-3.6735
			c-1.0903,0.0618-2.0321,0.5898-2.6839,1.38c-0.2179,0.2017-0.4041,0.4366-0.5709,0.6852
			c-0.1667-0.2486-0.3525-0.4835-0.5704-0.6852c-0.6523-0.7919-1.5936-1.3182-2.6837-1.38
			C9.2886,7.168,7.4906,8.8124,7.3684,10.9557c-0.008,0.1525-0.0053,0.3034,0.0039,0.4565
			c0.0417,1.3625,0.8343,5.0093,6.8895,8.3832c0.1277,0.0707,0.2445,0.1448,0.378,0.215c0.1326-0.0702,0.2515-0.1443,0.3786-0.215
			c6.0556-3.3739,6.848-7.0207,6.8902-8.3832C21.9168,11.2591,21.9204,11.1082,21.9116,10.9557z"/>
		<path id="XMLID_25_" class="st0" d="M18.1002,8.2766c1.4897,0,2.7253,1.2019,2.813,2.7369
			c0.0067,0.1153,0.003,0.2295-0.0041,0.3678c-0.0293,0.9458-0.57,4.2669-6.269,7.4798c-5.6996-3.2137-6.2393-6.5341-6.2696-7.5088
			c-0.0069-0.1155-0.0095-0.2292-0.0037-0.3396C8.4542,9.4784,9.69,8.2765,11.1801,8.2766c0.0501,0,0.1006,0.0013,0.149,0.004
			c0.7647,0.0433,1.4638,0.4047,1.9684,1.0173l0.043,0.0522l0.0496,0.0459c0.1388,0.1285,0.2759,0.2948,0.4192,0.5084l0.8302,1.2379
			l0.8306-1.2376c0.143-0.2131,0.2804-0.3795,0.4199-0.5087l0.0494-0.0457l0.0427-0.0518c0.5058-0.6131,1.2051-0.9746,1.9669-1.0178
			C17.9997,8.2779,18.05,8.2766,18.1002,8.2766 M18.1002,7.2766c-0.0683,0-0.1366,0.0018-0.2056,0.0056
			c-1.0903,0.0618-2.0321,0.5898-2.6839,1.38c-0.2179,0.2017-0.4041,0.4366-0.5709,0.6852
			c-0.1667-0.2486-0.3525-0.4835-0.5704-0.6852c-0.6523-0.7919-1.5936-1.3182-2.6837-1.38
			c-0.0688-0.0038-0.1374-0.0056-0.2056-0.0056c-2.0078-0.0001-3.6935,1.6062-3.8118,3.6791
			c-0.008,0.1525-0.0053,0.3034,0.0039,0.4565c0.0417,1.3625,0.8342,5.0093,6.8895,8.3832c0.1277,0.0707,0.2445,0.1448,0.378,0.215
			c0.1326-0.0702,0.2515-0.1443,0.3786-0.215c6.0556-3.3739,6.848-7.0207,6.8902-8.3832c0.0082-0.1531,0.0118-0.304,0.003-0.4565
			C21.7931,8.8829,20.1083,7.2766,18.1002,7.2766L18.1002,7.2766z"/>
	</g>
	<g id="XMLID_1043_">
		<path id="XMLID_1042_" class="st0" d="M9.2895,17.5779c-0.5869,0.4257-1.2542,0.8554-2.0131,1.2832
			c-5.6996-3.2137-6.2394-6.5341-6.2697-7.5088c-0.0069-0.1155-0.0095-0.2292-0.0037-0.3396
			c0.0875-1.5343,1.3233-2.7362,2.8134-2.7361c0.0501,0,0.1006,0.0013,0.149,0.004c0.7647,0.0433,1.4638,0.4047,1.9684,1.0173
			l0.043,0.0522L6.0265,9.396c0.1388,0.1285,0.2759,0.2948,0.4192,0.5084l0.2601-1.2422c-0.0732-0.089-0.1501-0.1746-0.2305-0.2565
			C5.8402,7.7579,4.9898,7.3371,4.0221,7.2822C3.9532,7.2784,3.8846,7.2766,3.8165,7.2766
			C1.8087,7.2765,0.123,8.8828,0.0047,10.9557c-0.008,0.1525-0.0053,0.3034,0.0039,0.4565
			c0.0417,1.3625,0.8342,5.0093,6.8895,8.3832c0.1277,0.0707,0.2445,0.1448,0.378,0.215c0.1326-0.0702,0.2515-0.1443,0.3787-0.215
			c0.8905-0.4962,1.6673-0.9983,2.3445-1.4981L9.2895,17.5779z"/>
	</g>
</g>
</svg>
