<?xml version="1.0" encoding="utf-8"?>
<!-- Generator: Adobe Illustrator 17.0.0, SVG Export Plug-In . SVG Version: 6.00 Build 0)  -->
<!DOCTYPE svg PUBLIC "-//W3C//DTD SVG 1.1//EN" "http://www.w3.org/Graphics/SVG/1.1/DTD/svg11.dtd">
<svg version="1.1" id="图层_1" xmlns="http://www.w3.org/2000/svg" xmlns:xlink="http://www.w3.org/1999/xlink" x="0px" y="0px"
	 width="100px" height="100px" viewBox="0 0 100 100" enable-background="new 0 0 100 100" xml:space="preserve">
<g>
	<path fill="#FFFFFF" d="M89.4,38.6c-1.8,0-3.1,0.2-3.1,0.2H59.2C61.7,25.5,66.6,9.1,56.1,4c-2.5-1.1-4.5-1.7-6.1-1.7
		c-5.4,0-5.9,6.2-6.9,15C41.9,29.3,24.6,42,24.6,42v55.7h58.7c8-3.8,13-37.4,15.4-49.4C100.5,39.8,93.6,38.6,89.4,38.6z M93.8,47.3
		c-0.4,1.9-0.8,4.2-1.3,6.8c-1.3,7-3.1,16.6-5.3,24.7c-2.6,9.5-4.7,12.8-5.6,13.9h-52V44.4c5.1-4.1,17.3-15.1,18.5-26.6l0-0.4
		c0.4-3.7,1-8.8,1.9-10.1c0,0,0,0,0,0c0.4,0,1.5,0.1,3.9,1.2c5.2,2.6,3.8,12.1,1.3,24.3c-0.3,1.7-0.7,3.4-1,5.1l-1.1,5.9h6h27.2
		l0.4,0l0.4-0.1c0,0,1-0.2,2.2-0.2c2.4,0,3.9,0.5,4.3,1C94,44.9,94.1,45.8,93.8,47.3z"/>
	<circle fill="#FFFFFF" cx="11.6" cy="52.3" r="2.5"/>
	<path fill="#FFFFFF" d="M20.1,41.3H3c-1.1,0-2,0.9-2,2v52.3c0,1.1,0.9,2,2,2h17.1c1.1,0,2-0.9,2-2V43.3
		C22.1,42.2,21.2,41.3,20.1,41.3z M11.6,56.8c-2.5,0-4.5-2-4.5-4.5s2-4.5,4.5-4.5s4.5,2,4.5,4.5S14,56.8,11.6,56.8z"/>
</g>
</svg>
