<?xml version="1.0" standalone="no"?><!DOCTYPE svg PUBLIC "-//W3C//DTD SVG 1.1//EN" "http://www.w3.org/Graphics/SVG/1.1/DTD/svg11.dtd"><svg class="icon" style="" viewBox="0 0 1024 1024" version="1.1" xmlns="http://www.w3.org/2000/svg" p-id="3081" xmlns:xlink="http://www.w3.org/1999/xlink" width="200" height="200"><defs><style type="text/css"><![CDATA[

]]></style></defs><path d="M497.502309 290.787806" p-id="3082"></path><path d="M554.337759 609.420797l0 69.071122c0.375553 9.268084-3.656273 16.437367-6.913457 27.79095-3.228531 11.416004-9.339716 22.135136-18.272155 32.193213-8.966209 10.0591-20.846794 18.625196-35.70213 25.809829-14.859429 7.14677-33.349549 11.282974-55.444776 12.476149-22.475897 1.154289-42.75578-2.915399-60.871369-12.18246-18.083867-9.265014-32.094976-20.974707-42.002626-35.032888-9.901511-14.133905-14.761192-29.580712-14.57188-46.358841 0.189312-16.812921 7.331989-32.55751 21.437242-47.216371 14.107299-14.691607 29.340235-24.918529 45.730531-30.707372 16.361643-5.79089 32.191166-8.996908 47.424102-9.56689 15.233959-0.593518 28.870538 0.465604 40.87085 3.184529 12.006452 2.707668 23.353894 3.461845 29.088502 5.771447l0-59.614749-284.977473-372.708584C124.529713 254.56072 63.980685 376.409882 63.980685 512.404206c0 247.63703 200.74914 448.381054 448.382077 448.381054 93.260034 0 179.865507-28.474518 251.605412-77.197196L554.337759 609.420797z" p-id="3083"></path><path d="M512.362762 64.021106c-86.608543 0-167.479409 24.560372-236.035808 67.091024l228.77238 299.200406c-0.058328-42.954301-0.326435-94.303806 0.011256-145.626705 0-11.218506 0.906649-16.885576 6.643304-24.034393 5.675256-7.108908 13.288654-11.277858 22.822798-12.437264 7.988951-1.158383 14.570857 0.465604 19.711947 4.933359 5.139044 4.428869 10.375302 10.618848 15.703657 18.525935 5.326309 7.943926 11.910261 16.908088 19.713994 26.932396 7.803733 10.060123 18.367323 19.923772 31.717376 29.55206 11.43954 8.891508 21.437242 15.250332 29.994128 19.122523 8.56098 3.871167 16.5837 7.446599 24.00881 10.719132 7.430226 3.275603 14.765285 7.249101 22.005176 11.878538 7.239891 4.6366 15.232936 12.17632 24.00881 22.598694 8.744151 10.026354 14.105253 20.48045 16.018835 31.30703 1.910513 10.8143 2.003634 20.675902 0.278339 29.543873-1.722224 8.865925-4.482081 16.108886-8.272407 21.734-3.856841 5.626137-7.085372 8.243755-9.749038 7.842619-2.664689-0.361227-5.0449-2.312672-7.14677-5.788843-2.099824-3.475148-3.697205-9.822716-4.857635-19.12457-1.911536-15.054881-6.768147-26.170033-14.575973-33.316803-7.804756-7.145747-19.901259-12.274558-36.295648-15.357779-17.140379-3.505847-32.281217-10.518564-45.411259-21.175275-13.139252-10.588149-24.105001-20.575618-32.851199-29.806863-8.399297-8.143471-14.858406-11.019984-19.431561-8.705266-4.575202 2.315742-6.175653 9.546424-6.175653 15.730263l1.36816 67.004043 0 62.346977 264.080537 345.379145c87.578638-81.833797 142.326543-198.361767 142.326543-327.682088C960.744839 264.769222 760.000815 64.021106 512.362762 64.021106z" p-id="3084"></path></svg>