<?xml version="1.0" encoding="utf-8"?>
<!-- Generator: Adobe Illustrator 19.0.0, SVG Export Plug-In . SVG Version: 6.00 Build 0)  -->
<svg version="1.1" id="图层_1" xmlns="http://www.w3.org/2000/svg" xmlns:xlink="http://www.w3.org/1999/xlink" x="0px" y="0px"
	 viewBox="0 0 22 22" style="enable-background:new 0 0 22 22;" xml:space="preserve">
<style type="text/css">
	.st0{fill:#231F20;}
</style>
<path id="XMLID_795_" class="st0" d="M11.3395,1h-0.0001c0.5587,0,1.0487,0.3254,1.1546,0.4375
	c0.0273,0.0289,0.0629,0.0636,0.1061,0.1045c0.6087,0.5768,0.9392,1.7212,0.9821,3.4012c0.0226,0.8825-0.1196,1.5081-0.2842,2.2325
	c-0.0758,0.3337-0.1537,0.6778-0.2211,1.0594c-0.0515,0.292,0.0291,0.5918,0.2202,0.8185c0.19,0.2255,0.4698,0.3555,0.7646,0.3555
	c0.0016,0,0.0032,0,0.0047,0l5.871-0.0278c0.4916,0,0.8077,0.1863,0.9665,0.5697c0.2097,0.5061,0.0658,1.1898-0.3347,1.5904
	c-0.3105,0.3106-0.382,0.7876-0.1762,1.1756c0.4534,0.8547-0.3088,1.6829-0.3165,1.6912c-0.2988,0.3186-0.3562,0.7942-0.1419,1.1747
	c0.2833,0.5032,0.05,1.2472-0.3392,1.6759c-0.3032,0.3338-0.3432,0.8255-0.1082,1.2016c0.0652,0.1969,0.1556,0.9354-0.2124,1.4878
	c-0.3236,0.4858-0.9641,0.7339-1.9037,0.7376l-9.9314,0.0388c-0.3819,0-0.7222-0.2136-1.0985-0.4496
	c-0.1182-0.076-0.3805-0.2345-0.3805-0.2345c-0.1588-0.096-0.3377-0.144-0.5169-0.144c-0.1699,0-0.3401,0.0433-0.4932,0.1301
	c-0.3145,0.1783-0.5081,0.5126-0.5066,0.8742c0.0001,0.032-0.0357,0.0681-0.0721,0.0683l-3.2631,0.0262
	c-0.0285,0-0.0592-0.0221-0.069-0.047L1,11.2877c-0.0003-0.0775,0.0581-0.1361,0.1381-0.1365l4.0183-0.0286
	c0.459-0.0023,0.6684-0.0033,2.717-2.5821c0.7157-0.9009,1.9813-2.5563,2.4169-3.5209c0.0611-0.1353,0.0913-0.2825,0.0885-0.4309
	c-0.0127-0.652-0.0789-3.089-0.0804-3.0903c0.014-0.1158,0.1876-0.3444,0.7502-0.4673C11.1425,1.0104,11.2403,1,11.3395,1
	 M11.3395,0c-0.1645,0-0.3337,0.0166-0.5053,0.0543C9.4333,0.3604,9.2888,1.2567,9.2996,1.5044c0,0,0.0667,2.4503,0.0793,3.1036
	c-0.6667,1.4763-4.0271,5.5136-4.2274,5.5146l-4.0206,0.0286C0.501,10.1542-0.0024,10.6615,0,11.2915l0.0401,9.7256
	c0.0451,0.5517,0.5172,0.9782,1.0687,0.9782c0.0012,0,0.0023,0,0.0035,0l3.2677-0.0263c0.5871-0.0022,1.0665-0.4808,1.064-1.0724
	c0,0,0.2457,0.1484,0.3565,0.2196c0.4286,0.2687,0.9562,0.6084,1.6393,0.6084c0.0028,0,0.0055,0,0.0083-0.0001l9.927-0.0387
	c3.7095-0.0144,3.3008-3.3078,2.9607-3.7548c0.6218-0.6847,1.0034-1.8919,0.4702-2.8388c0.4084-0.4355,1.1193-1.6209,0.4705-2.8438
	c1.2806-1.2808,0.8774-3.8671-1.339-3.8671c-0.0038,0-0.0073,0-0.0111,0l-5.8646,0.0278c0.2189-1.2391,0.5567-2.064,0.5202-3.4914
	c-0.0819-3.2037-1.1466-3.9401-1.361-4.167C12.9579,0.4724,12.2158,0,11.3395,0L11.3395,0z"/>
</svg>
