<?xml version="1.0" encoding="utf-8"?>
<!-- Generator: Adobe Illustrator 19.0.0, SVG Export Plug-In . SVG Version: 6.00 Build 0)  -->
<svg version="1.1" id="图层_1" xmlns="http://www.w3.org/2000/svg" xmlns:xlink="http://www.w3.org/1999/xlink" x="0px" y="0px"
	 viewBox="0 0 22 22" style="enable-background:new 0 0 22 22;" xml:space="preserve">
<style type="text/css">
	.st0{fill:#231F20;}
</style>
<path id="XMLID_326_" class="st0" d="M18.1879,1.2524c1.5555,0,2.821,1.5348,2.821,3.4213v7.0003
	c0,1.8865-1.2655,3.4213-2.821,3.4213h-6.079h-0.4134l-0.2927,0.292l-4.4292,4.4172c-0.0924,0.0921-0.195,0.1369-0.3136,0.1369
	c-0.1815,0-0.4695-0.1254-0.4695-0.4619v-3.3842v-1h-1H3.8299c-1.5555,0-2.821-1.5348-2.821-3.4213V4.6737
	c0-1.8865,1.2655-3.4213,2.821-3.4213H18.1879 M18.1879,0.2524H3.8299c-2.1015,0-3.821,1.9896-3.821,4.4213v7.0003
	c0,2.4317,1.7195,4.4213,3.821,4.4213h1.3606v3.3842c0,0.8793,0.7195,1.4619,1.4695,1.4619c0.3579,0,0.7226-0.1325,1.0197-0.4288
	l4.4292-4.4173h6.079c2.1015,0,3.821-1.9896,3.821-4.4213V4.6737C22.0089,2.242,20.2894,0.2524,18.1879,0.2524L18.1879,0.2524z"/>
<path id="XMLID_21_" class="st0" d="M8.2326,4.1184c0.0362,0,0.0726,0.001,0.1069,0.0029c0.5542,0.0322,1.0629,0.3028,1.4324,0.7619
	l0.0423,0.0526l0.0489,0.0464c0.101,0.0956,0.202,0.2214,0.3091,0.3848l0.8361,1.276l0.8365-1.2757
	c0.1069-0.1629,0.2082-0.289,0.3099-0.3853l0.0485-0.0461l0.042-0.0521c0.3705-0.4595,0.8794-0.7303,1.4306-0.7623
	c0.0366-0.0021,0.0733-0.0031,0.1097-0.0031c1.0898,0.0001,1.9945,0.9124,2.0596,2.077c0.005,0.0892,0.002,0.1776-0.0035,0.2886
	c-0.0227,0.7485-0.4412,3.3636-4.8327,5.9345C6.6169,9.847,6.1991,7.2323,6.1755,6.4556c-0.0053-0.0889-0.0073-0.1765-0.003-0.2604
	C6.2374,5.0306,7.1423,4.1184,8.2326,4.1184 M13.7852,3.1184c-0.0546,0-0.1098,0.0016-0.165,0.0046
	c-0.8748,0.0508-1.6305,0.4844-2.1535,1.1332c-0.1748,0.1657-0.3242,0.3585-0.4581,0.5627
	c-0.1338-0.2042-0.2828-0.397-0.4577-0.5627C10.0276,3.606,9.2723,3.1738,8.3975,3.123C8.3422,3.1199,8.2873,3.1184,8.2326,3.1184
	c-1.6111,0-2.9637,1.319-3.0586,3.0211c-0.0064,0.1251-0.0042,0.249,0.0032,0.3748c0.0335,1.1188,0.6694,4.1132,5.5281,6.8836
	c0.1024,0.0581,0.1961,0.1189,0.3033,0.1766c0.1064-0.0577,0.2018-0.1185,0.3039-0.1766c4.8588-2.7704,5.4947-5.7648,5.5286-6.8836
	c0.0065-0.1258,0.0094-0.2497,0.0024-0.3748C16.7484,4.4373,15.3967,3.1183,13.7852,3.1184L13.7852,3.1184z"/>
</svg>
