<?xml version="1.0" encoding="utf-8"?>
<!-- Generator: Adobe Illustrator 16.0.0, SVG Export Plug-In . SVG Version: 6.00 Build 0)  -->
<!DOCTYPE svg PUBLIC "-//W3C//DTD SVG 1.1//EN" "http://www.w3.org/Graphics/SVG/1.1/DTD/svg11.dtd">
<svg version="1.1" id="图层_1" xmlns="http://www.w3.org/2000/svg" xmlns:xlink="http://www.w3.org/1999/xlink" x="0px" y="0px"
	 width="160px" height="160px" viewBox="0 0 160 160" enable-background="new 0 0 160 160" xml:space="preserve">
<g>
	<path fill="#FFFFFF" stroke="#FFFFFF" stroke-width="5" stroke-miterlimit="10" d="M104.987,73.94
		c0,13.8-11.187,24.987-24.987,24.987l0,0c-13.801,0-24.989-11.188-24.989-24.987V39.829c0-13.8,11.188-24.988,24.989-24.988l0,0
		c13.801,0,24.987,11.188,24.987,24.988V73.94z"/>
	<line fill="none" stroke="#FFFFFF" stroke-width="5" stroke-miterlimit="10" x1="80" y1="112.086" x2="80" y2="140.966"/>
	<path fill="none" stroke="#FFFFFF" stroke-width="5" stroke-miterlimit="10" d="M118.189,73.897
		c0,21.093-17.098,38.188-38.189,38.188l0,0c-21.093,0-38.19-17.096-38.19-38.188"/>
	<line fill="none" stroke="#FFFFFF" stroke-width="5" stroke-miterlimit="10" x1="37.922" y1="140.966" x2="122.078" y2="140.966"/>
</g>
</svg>
