<?xml version="1.0" standalone="no"?><!DOCTYPE svg PUBLIC "-//W3C//DTD SVG 1.1//EN" "http://www.w3.org/Graphics/SVG/1.1/DTD/svg11.dtd"><svg width="200" height="200" viewBox="0 0 200 200" version="1.1" xmlns="http://www.w3.org/2000/svg" xmlns:xlink="http://www.w3.org/1999/xlink"><defs><style type="text/css"><![CDATA[
@font-face { font-family: ifont; src: url("http://at.alicdn.com/t/font_1442373896_4754455.eot?#iefix") format("embedded-opentype"), url("http://at.alicdn.com/t/font_1442373896_4754455.woff") format("woff"), url("http://at.alicdn.com/t/font_1442373896_4754455.ttf") format("truetype"), url("http://at.alicdn.com/t/font_1442373896_4754455.svg#ifont") format("svg"); }

]]></style></defs><g class="transform-group"><g transform="scale(0.1953125, 0.1953125)"><path d="M956.002798 782.607375c-10.949136 27.526332 22.512241 81.453383-26.196063 91.583891-48.912961 10.130509-30.084541-47.992006-40.726691-72.960128-62.624963-146.227241-258.993105-206.191666-376.773059-201.791546-42.363945 1.637254-31.107825 30.084541-35.200959 53.927051-6.753672 39.498751 25.172779 94.960727-18.009793 115.835715-50.8572 24.661137-79.509144-35.405616-114.198461-61.704007-84.625562-64.05756-165.055661-133.436195-247.327671-200.563605-35.81493-29.163585-51.266513-56.792245-5.218747-92.91416 99.974818-78.281203 198.41471-158.404317 296.445288-239.039073 22.61457-18.623763 44.717498-39.294094 74.188068-24.45648 25.684421 12.995703 13.609673 41.954632 14.121315 63.852903 2.148896 91.788548 0.511642 96.70031 136.710703 126.273209C839.860098 390.075747 944.644349 561.88508 956.002798 782.607375zM896.038373 693.78635c-55.25732-231.773758-215.912861-300.026781-367.665834-317.422604-96.08634-11.051464-97.621265-5.730389-105.50055-104.784251-3.069851-38.373139-9.823524-46.866394-42.977915-18.521435C309.799141 313.022484 237.350655 370.4287 164.595183 427.220945c-32.02878 24.968122-25.991406 41.954632 2.353553 64.876187 62.727291 50.754872 122.282402 105.398221 185.623663 155.436794 16.884181 13.302688 33.563705 42.568602 57.406216 31.926451 24.661137-10.949136 14.018987-42.466274 11.972419-63.443589-6.139702-62.113321 21.795943-78.178875 78.383532-70.606575 128.831418 17.293495 259.095433 28.651944 356.307385 131.594284C863.497951 684.269811 876.493654 685.702408 896.038373 693.78635z" fill="#ffffff"></path></g></g></svg>