<?xml version="1.0" standalone="no"?><!DOCTYPE svg PUBLIC "-//W3C//DTD SVG 1.1//EN" "http://www.w3.org/Graphics/SVG/1.1/DTD/svg11.dtd"><svg width="200" height="200" viewBox="0 0 200 200" version="1.1" xmlns="http://www.w3.org/2000/svg" xmlns:xlink="http://www.w3.org/1999/xlink"><defs><style type="text/css"><![CDATA[
@font-face { font-family: ifont; src: url("http://at.alicdn.com/t/font_1442373896_4754455.eot?#iefix") format("embedded-opentype"), url("http://at.alicdn.com/t/font_1442373896_4754455.woff") format("woff"), url("http://at.alicdn.com/t/font_1442373896_4754455.ttf") format("truetype"), url("http://at.alicdn.com/t/font_1442373896_4754455.svg#ifont") format("svg"); }

]]></style></defs><g class="transform-group"><g transform="scale(0.1953125, 0.1953125)"><path d="M960.844749 160.001558C955.46455 155.876624 948.746701 153.6 941.93367 153.6 938.496932 153.6 935.106493 154.163368 931.854966 155.273383L72.118076 421.32713C60.120354 425.446919 52.021119 435.997849 51.257114 448.277471 50.503397 460.566096 57.26112 472.017386 68.480688 477.442697L365.241681 620.9086 360.760542 812.005217C360.393974 823.61214 366.598628 834.242816 376.948722 839.74016 381.435005 842.136402 386.50394 843.402051 391.608889 843.402051 397.783961 843.402051 403.727515 841.614193 408.842753 838.227553L544.521974 716.274708C552.083574 711.169669 556.630313 704.161009 558.067 696.106644 559.498547 688.108882 557.679852 680.03394 552.953047 673.376425 547.174129 665.247457 537.708943 660.394522 527.64053 660.394522 521.551636 660.394522 515.677532 662.147651 510.603452 665.468692L424.327378 756.099302 427.582764 603.19209C427.959622 591.270042 421.186465 580.171177 410.319316 574.915645L162.800692 455.260404 906.443407 228.050752 829.029289 817.439135 634.897183 701.367322C630.13951 698.599357 624.728448 697.136916 619.232492 697.136916 608.384635 697.136916 598.205609 702.850345 592.683924 712.034017 588.479324 719.007944 587.272863 727.183212 589.288346 735.040778 591.328266 742.979379 596.392059 749.640755 603.486766 753.751542L839.289344 894.176799C844.036731 896.929331 849.452943 898.391767 854.95404 898.391767 859.797888 898.391767 864.646881 897.240596 868.97239 895.070725 878.437576 890.318116 884.678241 881.263068 885.693061 870.83819L972.641818 187.031645C973.110001 182.007639 972.411592 177.315478 970.71766 173.019475L960.844749 160.001558ZM847.001436 342.047877C853.00544 336.138945 856.310989 328.281376 856.300698 319.910603 856.290412 311.534684 852.969426 303.677115 846.940984 297.773328 840.98199 291.945427 833.083407 288.735002 824.693489 288.735002 816.409042 288.735002 808.600489 291.86954 802.667223 297.562386L489.777219 565.912049 489.25502 566.394383C483.251014 572.307174 479.950609 580.176323 479.960901 588.545807 479.975048 596.916582 483.301174 604.775434 489.320617 610.663788 495.279605 616.491689 503.176903 619.702118 511.562962 619.702118 519.8577 619.702118 527.664968 616.567578 533.599514 610.874732L846.483092 342.525068 847.001436 342.047877 847.001436 342.047877Z" fill="#ffffff"></path></g></g></svg>