<?xml version="1.0" standalone="no"?><!DOCTYPE svg PUBLIC "-//W3C//DTD SVG 1.1//EN" "http://www.w3.org/Graphics/SVG/1.1/DTD/svg11.dtd"><svg width="200" height="200" viewBox="0 0 200 200" version="1.1" xmlns="http://www.w3.org/2000/svg" xmlns:xlink="http://www.w3.org/1999/xlink"><defs><style type="text/css"><![CDATA[
@font-face { font-family: ifont; src: url("http://at.alicdn.com/t/font_1442373896_4754455.eot?#iefix") format("embedded-opentype"), url("http://at.alicdn.com/t/font_1442373896_4754455.woff") format("woff"), url("http://at.alicdn.com/t/font_1442373896_4754455.ttf") format("truetype"), url("http://at.alicdn.com/t/font_1442373896_4754455.svg#ifont") format("svg"); }

]]></style></defs><g class="transform-group"><g transform="scale(0.1953125, 0.1953125)"><path d="M127.577119 700.201359l319.366701 0 0 67.535139-319.366701 0 0-67.535139ZM127.577119 576.387449l191.972243 0 0 67.535139-191.972243 0 0-67.535139ZM127.577119 444.464861l191.972243 0 0 67.535139-191.972243 0 0-67.535139ZM894.112256 190.43012l1.964748-1.964748-2.523473 0c-10.615779-36.07666-43.957141-62.421678-83.471087-62.421678L214.598055 126.043694c-48.060599 0-87.021959 38.960337-87.021959 87.021959l0 169.932274 63.815421 0L191.391517 245.796102l262.143419 262.143419c16.991999 16.991999 39.262212 25.487487 61.532425 25.487487 22.271236 0 44.540426-8.495488 61.533448-25.487487l256.685103-256.685103L833.285912 804.454772c0 12.795421-10.410094 23.205515-23.205515 23.205515L129.210315 827.660286l0 63.815421 680.872129 0c48.060599 0 87.020936-38.960337 87.020936-87.020936L897.10338 213.06463C897.10338 205.232245 896.052444 197.649546 894.112256 190.43012zM531.478122 462.814788c-5.913687 5.913687-12.818957 6.7968-16.408715 6.7968s-10.495028-0.883113-16.407692-6.7968l-272.956695-272.955672 578.728774 0L531.478122 462.814788z" fill="#ffffff"></path></g></g></svg>