<?xml version="1.0" standalone="no"?><!DOCTYPE svg PUBLIC "-//W3C//DTD SVG 1.1//EN" "http://www.w3.org/Graphics/SVG/1.1/DTD/svg11.dtd"><svg width="32" height="32" viewBox="0 0 32 32" version="1.1" xmlns="http://www.w3.org/2000/svg" xmlns:xlink="http://www.w3.org/1999/xlink"><defs><style type="text/css"><![CDATA[
@font-face { font-family: ifont; src: url("http://at.alicdn.com/t/font_1442373896_4754455.eot?#iefix") format("embedded-opentype"), url("http://at.alicdn.com/t/font_1442373896_4754455.woff") format("woff"), url("http://at.alicdn.com/t/font_1442373896_4754455.ttf") format("truetype"), url("http://at.alicdn.com/t/font_1442373896_4754455.svg#ifont") format("svg"); }

]]></style></defs><g class="transform-group"><g transform="scale(0.03125, 0.03125)"><path d="M891.942588 1004.013269 134.914017 1004.013269C72.977865 1004.013269 22.761636 953.857293 22.761636 891.870227L22.761636 191.032273C22.761636 129.045206 72.977865 78.833158 134.914017 78.833158L275.104493 78.833158 275.104493 64.815277C275.104493 41.601667 265.907998 22.761636 289.123541 22.761636 312.367121 22.761636 331.180683 41.601667 331.180683 64.815277L331.180683 78.833158 695.675921 78.833158 695.675921 64.815277C695.675921 41.601667 714.517521 22.761636 737.733065 22.761636 760.948608 22.761636 751.752113 41.601667 751.752113 64.815277L751.752113 78.833158 891.942588 78.833158C953.878741 78.833158 1004.09497 129.045206 1004.09497 191.032273L1004.09497 891.870227C1004.09497 953.857293 953.878741 1004.013269 891.942588 1004.013269L891.942588 1004.013269ZM948.01878 190.976201C948.01878 160.024722 922.924685 134.90468 891.942588 134.90468L751.752113 134.90468 751.752113 176.958321C751.752113 200.171931 732.910513 219.011962 709.69497 219.011962 686.479426 219.011962 695.675921 200.171931 695.675921 176.958321L695.675921 134.90468 331.180683 134.90468 331.180683 176.958321C331.180683 200.171931 312.367121 219.011962 289.123541 219.011962 265.907998 219.011962 275.104493 200.171931 275.104493 176.958321L275.104493 134.90468 134.914017 134.90468C103.95996 134.90468 78.837826 160.024722 78.837826 190.976201L78.837826 891.870227C78.837826 922.849743 103.95996 947.941747 134.914017 947.941747L891.942588 947.941747C922.924685 947.941747 948.01878 922.849743 948.01878 891.870227L948.01878 190.976201 948.01878 190.976201ZM499.437293 706.694025C498.063426 710.142423 496.016646 713.366537 493.212836 716.170112 487.100531 722.309946 478.88537 724.608877 470.894513 723.879947 463.688723 723.936019 456.454895 721.244587 450.987467 715.777613 449.136951 713.927251 448.043467 711.62832 446.837828 709.469566L282.814972 546.946259C271.852077 535.984277 271.852077 518.265675 282.814972 507.303693 293.777867 496.341709 311.497941 496.341711 322.460838 507.303693L471.903885 655.360546 732.574057 395.525114C743.4248 384.619202 761.060762 384.619202 771.883467 395.525114 782.790287 406.431025 782.790287 424.121589 771.883467 434.999465L499.437293 706.694025 499.437293 706.694025Z" fill="#ffffff"></path></g></g></svg>