<?xml version="1.0" standalone="no"?><!DOCTYPE svg PUBLIC "-//W3C//DTD SVG 1.1//EN" "http://www.w3.org/Graphics/SVG/1.1/DTD/svg11.dtd"><svg width="49.34375" height="32" viewBox="0 0 49.34375 32" version="1.1" xmlns="http://www.w3.org/2000/svg" xmlns:xlink="http://www.w3.org/1999/xlink"><defs><style type="text/css"><![CDATA[
@font-face { font-family: ifont; src: url("http://at.alicdn.com/t/font_1442373896_4754455.eot?#iefix") format("embedded-opentype"), url("http://at.alicdn.com/t/font_1442373896_4754455.woff") format("woff"), url("http://at.alicdn.com/t/font_1442373896_4754455.ttf") format("truetype"), url("http://at.alicdn.com/t/font_1442373896_4754455.svg#ifont") format("svg"); }

]]></style></defs><g class="transform-group"><g transform="scale(0.03125, 0.03125)"><path d="M1449.874432 544.702464c-17.639424 0-31.98976 14.348288-31.98976 31.983616L1417.884672 834.70336c0 19.689472-16.01536 35.708928-35.702784 35.708928L705.250304 870.412288c-19.689472 0-35.708928-16.017408-35.708928-35.708928L669.541376 157.804544c0-19.689472 16.019456-35.708928 35.708928-35.708928l462.4384 0c17.629184 0 31.971328-14.344192 31.971328-31.97952 0-17.637376-14.342144-31.983616-31.971328-31.983616l-462.4384 0c-54.962176 0-99.67616 44.713984-99.67616 99.672064L605.574144 834.70336c0 54.964224 44.713984 99.680256 99.67616 99.680256l676.929536 0c54.966272 0 99.682304-44.716032 99.682304-99.680256L1481.862144 576.68608C1481.862144 559.050752 1467.513856 544.702464 1449.874432 544.702464zM1546.544128 184.936448c-6.203392-7.56736-15.376384-11.907072-25.16992-11.907072-7.487488 0-14.804992 2.617344-20.609024 7.3728L972.372992 613.527552l-192.93184-192.93184c-6.144-6.144-14.313472-9.531392-23.003136-9.531392s-16.857088 3.385344-23.001088 9.527296c-6.146048 6.144-9.531392 14.311424-9.531392 23.001088 0 8.689664 3.383296 16.857088 9.529344 23.003136l213.774336 213.774336c0.057344 0.055296 0.120832 0.104448 0.176128 0.159744 0.264192 0.262144 0.550912 0.493568 0.821248 0.745472 0.569344 0.524288 1.142784 1.042432 1.742848 1.521664 0.335872 0.268288 0.684032 0.512 1.030144 0.763904 0.58368 0.43008 1.169408 0.847872 1.777664 1.236992 0.350208 0.221184 0.70656 0.43008 1.06496 0.638976 0.641024 0.376832 1.29024 0.731136 1.953792 1.060864 0.34816 0.17408 0.700416 0.339968 1.05472 0.499712 0.702464 0.315392 1.41312 0.60416 2.136064 0.8704 0.346112 0.126976 0.688128 0.256 1.038336 0.370688 0.75776 0.249856 1.527808 0.462848 2.304 0.653312 0.33792 0.083968 0.671744 0.180224 1.01376 0.253952 0.831488 0.178176 1.673216 0.3072 2.521088 0.421888 0.299008 0.04096 0.59392 0.100352 0.894976 0.131072 1.144832 0.120832 2.301952 0.192512 3.467264 0.192512l0.012288 0c1.001472 0 1.9968-0.053248 2.985984-0.145408 0.452608-0.04096 0.894976-0.116736 1.343488-0.176128 0.512-0.067584 1.026048-0.131072 1.536-0.22528 0.577536-0.104448 1.144832-0.239616 1.712128-0.374784 0.360448-0.088064 0.720896-0.172032 1.077248-0.270336 0.622592-0.169984 1.236992-0.366592 1.847296-0.57344 0.292864-0.098304 0.581632-0.202752 0.8704-0.309248 0.626688-0.233472 1.247232-0.48128 1.859584-0.755712 0.274432-0.12288 0.54272-0.256 0.813056-0.385024 0.598016-0.288768 1.191936-0.579584 1.77152-0.903168 0.299008-0.167936 0.587776-0.354304 0.882688-0.530432 0.534528-0.321536 1.071104-0.636928 1.589248-0.989184 0.397312-0.272384 0.774144-0.57344 1.161216-0.862208 0.417792-0.313344 0.843776-0.610304 1.247232-0.944128l551.094272-451.729408C1555.88096 219.346944 1557.914624 198.8096 1546.544128 184.936448zM9.419776 719.478784" fill="#ffffff"></path></g></g></svg>