<?xml version="1.0" encoding="utf-8"?>
<!-- Generator: Adobe Illustrator 17.0.0, SVG Export Plug-In . SVG Version: 6.00 Build 0)  -->
<!DOCTYPE svg PUBLIC "-//W3C//DTD SVG 1.1//EN" "http://www.w3.org/Graphics/SVG/1.1/DTD/svg11.dtd">
<svg version="1.1" id="图层_1" xmlns="http://www.w3.org/2000/svg" xmlns:xlink="http://www.w3.org/1999/xlink" x="0px" y="0px"
	 width="40px" height="40px" viewBox="0 0 40 40" enable-background="new 0 0 40 40" xml:space="preserve">
<g>
	<path fill="#FFFFFF" d="M17.1,16.6v10.2h5.8V16.6c0-1.2,0.8-2.1,1.9-2.4l-5.2-4.4L15,14.1C16.2,14.3,17.1,15.4,17.1,16.6z"/>
	<path fill="#FFFFFF" d="M20,0.5C9.2,0.5,0.5,9.2,0.5,20c0,10.8,8.7,19.5,19.5,19.5S39.5,30.8,39.5,20C39.5,9.2,30.8,0.5,20,0.5z
		 M12,14.9l6.9-6.4c0.2-0.2,0.5-0.3,0.8-0.3c0.3,0,0.5,0.1,0.7,0.3L28,15c0.4,0.4,0.3,0.6-0.2,0.6h-2.4c-0.5,0-1,0.5-1,1v10.7
		c0,0.5-0.5,1-1,1h-6.8c-0.5,0-1-0.5-1-1V16.6c0-0.5-0.5-1-1-1h-2.4C11.7,15.6,11.6,15.3,12,14.9z M31.5,29.7c0,1-0.8,1.8-1.8,1.8
		H10.3c-1,0-1.8-0.8-1.8-1.8v-6.8H10v6.8c0,0.1,0.1,0.3,0.3,0.3h19.4c0.1,0,0.3-0.1,0.3-0.3v-6.8h1.5V29.7z"/>
</g>
</svg>
