<?xml version="1.0" encoding="utf-8"?>
<!-- Generator: Adobe Illustrator 17.0.0, SVG Export Plug-In . SVG Version: 6.00 Build 0)  -->
<!DOCTYPE svg PUBLIC "-//W3C//DTD SVG 1.1//EN" "http://www.w3.org/Graphics/SVG/1.1/DTD/svg11.dtd">
<svg version="1.1" id="图层_1" xmlns="http://www.w3.org/2000/svg" xmlns:xlink="http://www.w3.org/1999/xlink" x="0px" y="0px"
	 width="40px" height="40px" viewBox="0 0 40 40" enable-background="new 0 0 40 40" xml:space="preserve">
<g>
	<path fill="#FFFFFF" d="M36.5,12.5h-8.7v2h8.7c0.6,0,1,0.4,1,1v21c0,0.6-0.4,1-1,1h-33c-0.6,0-1-0.4-1-1v-21c0-0.6,0.4-1,1-1h8.7
		v-2H3.5c-1.7,0-3,1.3-3,3v21c0,1.7,1.3,3,3,3h33c1.7,0,3-1.3,3-3v-21C39.5,13.8,38.2,12.5,36.5,12.5z"/>
	<polygon fill="#FFFFFF" points="13.9,9.4 18.8,4.5 18.8,27.5 20.8,27.5 20.8,4.1 26.1,9.4 27.5,8 20,0.5 12.5,8 	"/>
</g>
</svg>
