<?xml version="1.0" standalone="no"?><!DOCTYPE svg PUBLIC "-//W3C//DTD SVG 1.1//EN" "http://www.w3.org/Graphics/SVG/1.1/DTD/svg11.dtd"><svg width="200" height="200" viewBox="0 0 200 200" version="1.1" xmlns="http://www.w3.org/2000/svg" xmlns:xlink="http://www.w3.org/1999/xlink"><defs><style type="text/css"><![CDATA[
@font-face { font-family: ifont; src: url("http://at.alicdn.com/t/font_1442373896_4754455.eot?#iefix") format("embedded-opentype"), url("http://at.alicdn.com/t/font_1442373896_4754455.woff") format("woff"), url("http://at.alicdn.com/t/font_1442373896_4754455.ttf") format("truetype"), url("http://at.alicdn.com/t/font_1442373896_4754455.svg#ifont") format("svg"); }

]]></style></defs><g class="transform-group"><g transform="scale(0.1953125, 0.1953125)"><path d="M601.043478 701.217391l-178.086957 0c-55.229217 0-100.173913-44.944696-100.173913-100.173913l0-178.086957c0-55.229217 44.944696-100.173913 100.173913-100.173913l178.086957 0c55.229217 0 100.173913 44.944696 100.173913 100.173913l0 178.086957C701.217391 656.272696 656.272696 701.217391 601.043478 701.217391zM422.956522 389.565217c-18.409739 0-33.391304 14.981565-33.391304 33.391304l0 178.086957c0 18.409739 14.981565 33.391304 33.391304 33.391304l178.086957 0c18.409739 0 33.391304-14.981565 33.391304-33.391304l0-178.086957c0-18.409739-14.981565-33.391304-33.391304-33.391304L422.956522 389.565217zM512 89.043478c233.22713 0 422.956522 189.729391 422.956522 422.956522s-189.729391 422.956522-422.956522 422.956522S89.043478 745.22713 89.043478 512 278.77287 89.043478 512 89.043478M512 22.26087C241.552696 22.26087 22.26087 241.530435 22.26087 512s219.291826 489.73913 489.73913 489.73913 489.73913-219.269565 489.73913-489.73913S782.447304 22.26087 512 22.26087L512 22.26087z" fill="#ffffff"></path></g></g></svg>