<?xml version="1.0" standalone="no"?><!DOCTYPE svg PUBLIC "-//W3C//DTD SVG 1.1//EN" "http://www.w3.org/Graphics/SVG/1.1/DTD/svg11.dtd"><svg class="icon" style="" viewBox="0 0 1024 1024" version="1.1" xmlns="http://www.w3.org/2000/svg" p-id="8545" xmlns:xlink="http://www.w3.org/1999/xlink" width="200" height="200"><defs><style type="text/css"><![CDATA[

]]></style></defs><path d="M958.002659 926.315221 958.002659 310.086041c0-6.185908-1.380783-12.046565-3.837554-17.302746-2.331989-6.115335-6.079537-11.53005-10.855001-15.83298L664.117806 11.760181c-6.254436-5.941459-14.063532-9.590817-22.247996-10.790564-2.393357-0.435714-4.85422-0.676072-7.373382-0.676072l-90.450498 0c-22.595748 0-40.912092 18.317366-40.912092 40.912092s18.316344 40.912092 40.912092 40.912092l50.983626 0 0 174.323355c0 24.526799 9.550928 47.585877 26.893564 64.928513 17.343659 17.343659 40.402736 26.894586 64.928513 26.893564l189.325819 0 0 578.679039 0.02557 1.447265c0.169785 4.819444-1.91264 8.02593-3.689248 9.865951-1.413513 1.464653-4.490102 3.921424-9.210335 3.921424L204.701606 942.176839c-7.703747 0-13.971479-6.835388-13.971479-15.235663L190.730127 550.906888c0-22.594726-18.317366-40.912092-40.912092-40.912092s-40.912092 18.317366-40.912092 40.912092l0 376.035311c0 53.51813 42.974061 97.059847 95.795663 97.059847l658.603879 0c25.903491 0 50.08356-10.270981 68.082835-28.919735C949.272018 976.554247 958.705324 952.163481 958.002659 926.315221zM686.851633 266.439999c-3.422296 0-5.732807-1.592503-7.068587-2.92726-1.336803-1.336803-2.928283-3.647313-2.928283-7.071655L676.854763 136.709801l136.578882 129.730198L686.851633 266.439999z" p-id="8546" fill="#ffffff"></path><path d="M786.147325 574.568396 425.852942 574.568396c-22.594726 0-40.912092 18.316344-40.912092 40.912092s18.317366 40.912092 40.912092 40.912092l360.294383 0c22.595748 0 40.912092-18.316344 40.912092-40.912092S808.743074 574.568396 786.147325 574.568396z" p-id="8547" fill="#ffffff"></path><path d="M256.88498 615.473329c0 10.780336 4.367366 21.325428 11.987243 28.935077 7.609649 7.618854 18.154741 11.987243 28.924849 11.987243 10.770108 0 21.3152-4.368389 28.935077-11.987243 7.609649-7.619877 11.977015-18.165992 11.977015-28.935077 0-10.760903-4.367366-21.304972-11.977015-28.924849-7.619877-7.609649-18.164969-11.977015-28.935077-11.977015-10.770108 0-21.3152 4.367366-28.924849 11.977015C261.252346 594.168357 256.88498 604.713449 256.88498 615.473329z" p-id="8548" fill="#ffffff"></path><path d="M784.919963 765.062256 424.626602 765.062256c-22.594726 0-40.912092 18.316344-40.912092 40.912092s18.317366 40.912092 40.912092 40.912092l360.29336 0c22.595748 0 40.912092-18.316344 40.912092-40.912092S807.515711 765.062256 784.919963 765.062256z" p-id="8549" fill="#ffffff"></path><path d="M296.774269 765.058165c-10.770108 0-21.3152 4.367366-28.924849 11.987243-7.619877 7.609649-11.987243 18.154741-11.987243 28.924849 0 10.769085 4.367366 21.3152 11.987243 28.935077 7.609649 7.608626 18.154741 11.977015 28.924849 11.977015 10.770108 0 21.3152-4.368389 28.924849-11.977015 7.619877-7.619877 11.987243-18.165992 11.987243-28.935077 0-10.770108-4.367366-21.304972-11.987243-28.924849C318.088446 769.425531 307.544378 765.058165 296.774269 765.058165z" p-id="8550" fill="#ffffff"></path><path d="M212.412513 461.532378c7.08802 5.089464 15.455566 7.680222 23.867092 7.680222 6.378195 0 12.782983-1.490223 18.670233-4.510558 13.652365-7.00415 22.237768-21.057454 22.237768-36.400511L277.187605 104.351405c0-15.6724-8.953611-29.967085-23.053964-36.807586-14.098307-6.840502-30.868173-5.02605-43.179645 4.673184-37.889711 29.854576-85.295575 64.74134-102.361031 74.415004L72.142337 146.632006c-38.081998 0-69.064725 33.392449-69.064725 74.436483l0 97.892408c0 41.044033 30.982727 74.436483 69.064725 74.436483L109.439846 393.39738C126.093113 401.847772 174.049244 433.986266 212.412513 461.532378zM84.901796 228.45619l31.244565 0c14.440946 0 27.757832-6.906984 47.280059-19.655192 8.803259-5.748149 19.515068-13.190058 31.939047-22.186627l0 163.735306c-13.042775-8.631429-24.243483-15.736836-33.38529-21.177122-22.114008-13.158352-33.678834-17.600382-45.833817-17.600382L84.901796 311.572173 84.901796 228.45619z" p-id="8551" fill="#ffffff"></path><path d="M403.384021 415.28944c-15.605917 16.339267-15.011669 42.236621 1.327597 57.843561 7.924672 7.568737 18.095418 11.326513 28.251845 11.326513 10.78545 0 21.553513-4.239516 29.591716-12.65411 49.072009-51.376382 75.707826-118.809738 75.00107-189.87711-0.707779-71.210564-28.815409-138.142747-79.141373-188.469734-15.977195-15.977195-41.880686-15.977195-57.85788 0s-15.977195 41.880686 0 57.85788C472.46102 223.22251 473.729295 341.639492 403.384021 415.28944z" p-id="8552" fill="#ffffff"></path><path d="M312.632819 345.692858c-15.202933 16.715658-13.976593 42.590511 2.739065 57.793444 7.83978 7.129955 17.692434 10.646349 27.515427 10.646349 11.121952 0 22.205038-4.509535 30.279039-13.385414 61.408027-67.518248 58.991145-170.926629-5.501654-235.418405-15.977195-15.977195-41.881709-15.977195-57.858903 0-15.977195 15.977195-15.977195 41.881709 0 57.85788C343.356777 256.736673 344.597436 310.547325 312.632819 345.692858z" p-id="8553" fill="#ffffff"></path></svg>