<?xml version="1.0" standalone="no"?><!DOCTYPE svg PUBLIC "-//W3C//DTD SVG 1.1//EN" "http://www.w3.org/Graphics/SVG/1.1/DTD/svg11.dtd"><svg class="icon" style="" viewBox="0 0 1024 1024" version="1.1" xmlns="http://www.w3.org/2000/svg" p-id="14409" xmlns:xlink="http://www.w3.org/1999/xlink" width="200" height="200"><defs><style type="text/css"><![CDATA[

]]></style></defs><path d="M511.965575 703.987091c123.54452 0 224.008227-100.500156 224.008227-224.012276L735.973802 224.008227C735.969752 100.500156 635.510095 0 511.965575 0 388.453455 0 287.989748 100.500156 287.989748 224.008227l0 255.970638C287.989748 603.486934 388.453455 703.987091 511.965575 703.987091zM351.98747 223.971777c0-88.188229 71.785826-160.010505 159.978105-160.010505 88.224679 0 160.014555 71.822276 160.014555 160.010505l0 255.970638c0 88.224679-71.789876 159.982155-160.014555 159.982155-88.192279 0-159.978105-71.793926-159.978105-159.982155L351.98747 223.971777z" p-id="14410" fill="#ffffff"></path><path d="M895.992406 479.978864l-63.997722 0c0 176.485807-143.514952 320.000759-320.004809 320.000759-176.441258 0-319.95621-143.514952-319.95621-320.000759L128.007594 479.978864c0 201.004362 155.191033 366.053037 351.955071 382.386591l0 97.620623L288.443346 959.986078l0 63.997722 447.562856 0 0-63.997722-192.013416 0 0-97.620623C740.760873 845.995452 895.992406 680.983227 895.992406 479.978864z" p-id="14411" fill="#ffffff"></path></svg>