<?xml version="1.0" standalone="no"?><!DOCTYPE svg PUBLIC "-//W3C//DTD SVG 1.1//EN" "http://www.w3.org/Graphics/SVG/1.1/DTD/svg11.dtd"><svg class="icon" style="" viewBox="0 0 1024 1024" version="1.1" xmlns="http://www.w3.org/2000/svg" p-id="5456" xmlns:xlink="http://www.w3.org/1999/xlink" width="200" height="200"><defs><style type="text/css"><![CDATA[

]]></style></defs><path d="M275.265 161.328h-191.147c-33.874 0-61.44 27.566-61.44 61.44v191.147c0 33.874 27.566 61.44 61.44 61.44h191.147c33.874 0 61.44-27.566 61.44-61.44v-191.147c0-33.888-27.566-61.44-61.44-61.44zM295.745 413.915c0 11.292-9.188 20.48-20.48 20.48h-191.147c-11.292 0-20.48-9.188-20.48-20.48v-191.147c0-11.292 9.188-20.48 20.48-20.48h191.147c11.292 0 20.48 9.188 20.48 20.48v191.147z" p-id="5457"></path><path d="M420.885 227.983l582.547 0.874-0.062 40.96-582.547-0.874 0.062-40.96z" p-id="5458"></path><path d="M1002.483 408.555l-582.329 0.174-0.012-40.96 582.329-0.174 0.012 40.96z" p-id="5459"></path><path d="M275.265 543.621h-191.147c-33.874 0-61.44 27.566-61.44 61.44v191.147c0 33.874 27.566 61.44 61.44 61.44h191.147c33.874 0 61.44-27.566 61.44-61.44v-191.147c0-33.888-27.566-61.44-61.44-61.44zM295.745 796.208c0 11.292-9.188 20.48-20.48 20.48h-191.147c-11.292 0-20.48-9.188-20.48-20.48v-191.147c0-11.292 9.188-20.48 20.48-20.48h191.147c11.292 0 20.48 9.188 20.48 20.48v191.147z" p-id="5460"></path><path d="M420.871 610.276l582.547 0.874-0.062 40.96-582.547-0.874 0.062-40.96z" p-id="5461"></path><path d="M420.154 749.964h582.329v40.96h-582.329v-40.96z" p-id="5462"></path></svg>