<?xml version="1.0" encoding="utf-8"?>
<!-- Generator: Adobe Illustrator 17.0.0, SVG Export Plug-In . SVG Version: 6.00 Build 0)  -->
<!DOCTYPE svg PUBLIC "-//W3C//DTD SVG 1.1//EN" "http://www.w3.org/Graphics/SVG/1.1/DTD/svg11.dtd">
<svg version="1.1" id="图层_1" xmlns="http://www.w3.org/2000/svg" xmlns:xlink="http://www.w3.org/1999/xlink" x="0px" y="0px"
	 width="60px" height="60px" viewBox="0 0 60 60" enable-background="new 0 0 60 60" xml:space="preserve">
<g>
	<g>
		<path fill="#FFFFFF" d="M28.2,33.9c-0.5,0.2-0.7,0.5-0.7,0.9c0.2,0.3,0.5,0.5,1,0.5s0.9-0.5,0.7-0.9
			C28.9,34.1,28.6,33.7,28.2,33.9z"/>
	</g>
	<g>
		<path fill="#FFFFFF" d="M25,34.8c-1,0.3-1.6,1.4-1.5,2.1c0.2,1,1.4,1.5,2.3,1.2c1-0.2,1.6-1.2,1.5-2.1C27.1,35,25.9,34.5,25,34.8z
			"/>
	</g>
	<g>
		<path fill="#FFFFFF" d="M30,1C14,1,1,14,1,30s13,29,29,29s29-13,29-29S46,1,30,1z M38.9,42.1c-5.7,3.7-15.6,3.7-20.6,1.2
			c-5.7-2.8-7.9-8.9-2.8-16.2c5-7.3,11.2-9.2,13.2-8.7c2.8,0.9,2,4.2,2,4.8c-0.2,0.7-0.2,1.5,0.5,1c1.5-1,6.4-2.1,8-0.7
			c1.6,1.5,0,4.8,0.2,5.2c0,0.3,1.6-0.3,4.1,2.3C45.8,33.7,44.2,38.5,38.9,42.1z M44.2,25.2c-0.9,1.4-2.7,0.2-2.3-0.7
			c0.9-2.7-0.9-3.7-2.7-3.5c-1.8,0.2-1.6-2.3-0.2-2.5c1-0.2,2.2,0,3.9,1C44.4,20.6,45.3,23.6,44.2,25.2z M48.9,26.7
			c-0.7,1.8-3.4,0.9-2.7-1c0.7-2,0.5-4.8-1.4-7.2c-1.8-2.3-4.2-2.3-6.4-2.1c-2.2,0.2-2.2-2.8-0.2-3.2c3.5-0.3,6.6,1,8.9,3.9
			C49.6,19.7,49.6,24.9,48.9,26.7z"/>
	</g>
	<g>
		<path fill="#FFFFFF" d="M26.8,27.7c-5.9,0.7-10.5,4.5-10.2,8.7s5.3,7.1,11.4,6.5c6-0.7,10.5-4.5,10.2-8.7
			C37.8,30,32.8,27.2,26.8,27.7z M28.3,40.5c-3.2,0.9-6.4-0.7-7.1-3.7c-0.7-2.8,1.4-5.9,4.5-6.9c3.2-0.9,6.4,0.7,7.1,3.7
			C33.5,36.6,31.5,39.8,28.3,40.5z"/>
	</g>
</g>
</svg>
