<?xml version="1.0" standalone="no"?><!DOCTYPE svg PUBLIC "-//W3C//DTD SVG 1.1//EN" "http://www.w3.org/Graphics/SVG/1.1/DTD/svg11.dtd"><svg class="icon" style="" viewBox="0 0 1024 1024" version="1.1" xmlns="http://www.w3.org/2000/svg" p-id="4900" xmlns:xlink="http://www.w3.org/1999/xlink" width="200" height="200"><defs><style type="text/css"><![CDATA[

]]></style></defs><path d="M803.43551 1024 144.013406 1024C83.314663 1024 34.104058 974.756543 34.104058 914.023814L34.104058 180.987449c0-60.731596 49.210605-109.942201 109.909348-109.942201l512.885747 0c46.946056 0 46.946056 73.283472 0 73.283472L144.013406 144.32872c-19.478065 0-36.658729 17.180664-36.658729 36.658729l0 733.037498c0 19.476932 17.181797 36.658729 36.658729 36.658729l659.422104 0c19.474666 0 36.656463-17.181797 36.656463-36.658729L840.091973 327.588378c0-46.980041 73.248354-46.980041 73.248354 0l0 586.435436C913.340327 974.756543 864.133121 1024 803.43551 1024L803.43551 1024zM561.871935 427.243251c-13.716437-16.048956-13.716437-36.659861 0-52.674832L925.928454 10.313652c14.917248-13.751555 37.791569-13.751555 52.673699 0 12.584729 13.751555 14.884395 28.633684 5.727643 44.68264l-5.727643 8.023911L614.546767 427.243251C599.662371 440.993673 576.75633 440.993673 561.871935 427.243251L561.871935 427.243251zM437.08159 437.563431 217.262893 437.563431c-46.946056 0-46.946056-73.317457 0-73.317457l219.818696 0C484.028778 364.245974 484.028778 437.563431 437.08159 437.563431L437.08159 437.563431zM656.89802 657.448965 217.262893 657.448965c-46.946056 0-46.946056-73.283472 0-73.283472l439.63626 0C703.845209 584.165493 703.845209 657.448965 656.89802 657.448965z" p-id="4901" fill="#ffffff"></path></svg>