<?xml version="1.0" encoding="utf-8"?>
<!-- Generator: Adobe Illustrator 17.0.0, SVG Export Plug-In . SVG Version: 6.00 Build 0)  -->
<!DOCTYPE svg PUBLIC "-//W3C//DTD SVG 1.1//EN" "http://www.w3.org/Graphics/SVG/1.1/DTD/svg11.dtd">
<svg version="1.1" id="图层_1" xmlns="http://www.w3.org/2000/svg" xmlns:xlink="http://www.w3.org/1999/xlink" x="0px" y="0px"
	 width="40px" height="40px" viewBox="0 0 40 40" enable-background="new 0 0 40 40" xml:space="preserve">
<g>
	<g>
		<path fill="#FFFFFF" d="M11.2,5.3c4.8,0,7,4.7,7.1,4.8l1.8,4l1.7-4c0.1-0.2,2-4.8,7.1-4.8c5.3-0.1,8.2,4.8,8.2,9.6
			c0,6.7-11.5,15.7-17,19.4C14.5,30.6,2.9,21.6,2.9,15C2.9,10.3,5.5,5.3,11.2,5.3 M11.2,3.4C4.5,3.4,1,9.2,1,15
			c0,9.7,19.1,21.7,19.1,21.7S39,24.8,39,15c0-5.9-3.6-11.6-10.1-11.6s-8.8,6-8.8,6S17.3,3.4,11.2,3.4L11.2,3.4z"/>
	</g>
</g>
</svg>
