<?xml version="1.0" standalone="no"?><!DOCTYPE svg PUBLIC "-//W3C//DTD SVG 1.1//EN" "http://www.w3.org/Graphics/SVG/1.1/DTD/svg11.dtd"><svg width="235.3515625" height="200" viewBox="0 0 235.3515625 200" version="1.1" xmlns="http://www.w3.org/2000/svg" xmlns:xlink="http://www.w3.org/1999/xlink"><defs><style type="text/css"><![CDATA[
@font-face { font-family: ifont; src: url("http://at.alicdn.com/t/font_1442373896_4754455.eot?#iefix") format("embedded-opentype"), url("http://at.alicdn.com/t/font_1442373896_4754455.woff") format("woff"), url("http://at.alicdn.com/t/font_1442373896_4754455.ttf") format("truetype"), url("http://at.alicdn.com/t/font_1442373896_4754455.svg#ifont") format("svg"); }

]]></style></defs><g class="transform-group"><g transform="scale(0.1953125, 0.1953125)"><path d="M602.352941 1024c-304.941176 0-528.112941-230.881882-602.352941-512 74.691765-283.226353 297.411765-512 602.352941-512s528.624941 230.038588 602.352941 512C1129.743059 794.774588 907.294118 1024 602.352941 1024zM602.352941 60.235294c-269.462588 0-476.099765 201.848471-542.117647 451.764706 65.596235 248.048941 272.655059 451.764706 542.117647 451.764706s475.858824-202.270118 542.117647-451.764706C1079.326118 263.228235 871.815529 60.235294 602.352941 60.235294zM602.352941 783.058824c-149.714824 0-271.058824-121.344-271.058824-271.058824s121.344-271.058824 271.058824-271.058824 271.058824 121.344 271.058824 271.058824S752.067765 783.058824 602.352941 783.058824zM602.352941 301.176471c-116.434824 0-210.823529 94.388706-210.823529 210.823529 0 116.434824 94.388706 210.823529 210.823529 210.823529s210.823529-94.388706 210.823529-210.823529C813.176471 395.565176 718.787765 301.176471 602.352941 301.176471z" fill="#ffffff"></path></g></g></svg>